<svg width="16" height="14" viewBox="0 0 16 14" fill="none" xmlns="http://www.w3.org/2000/svg">
<path d="M0.469847 3.47001C0.337367 3.61219 0.265243 3.80023 0.268672 3.99453C0.2721 4.18884 0.350812 4.37422 0.488225 4.51163C0.625638 4.64905 0.811023 4.72776 1.00532 4.73119C1.19963 4.73461 1.38767 4.66249 1.52985 4.53001L0.469847 3.47001ZM3.99985 1.00001L4.52985 0.470011C4.38922 0.329561 4.1986 0.250671 3.99985 0.250671C3.8011 0.250671 3.61047 0.329561 3.46985 0.470011L3.99985 1.00001ZM6.46985 4.53001C6.61202 4.66249 6.80007 4.73461 6.99437 4.73119C7.18867 4.72776 7.37406 4.64905 7.51147 4.51163C7.64888 4.37422 7.72759 4.18884 7.73102 3.99453C7.73445 3.80023 7.66233 3.61219 7.52985 3.47001L6.46985 4.53001ZM3.24985 13C3.24985 13.1989 3.32886 13.3897 3.46952 13.5303C3.61017 13.671 3.80093 13.75 3.99985 13.75C4.19876 13.75 4.38952 13.671 4.53018 13.5303C4.67083 13.3897 4.74985 13.1989 4.74985 13H3.24985ZM1.52985 4.53001L4.52985 1.53001L3.46985 0.470011L0.469847 3.47001L1.52985 4.53001ZM3.46885 1.53001L6.46885 4.53001L7.52985 3.47001L4.52985 0.470011L3.46885 1.53001ZM3.24985 1.00001V13H4.74985V1.00001H3.24985Z" fill="#28303F"/>
<path d="M15.5298 10.53C15.6035 10.4613 15.6626 10.3785 15.7036 10.2865C15.7446 10.1945 15.7667 10.0952 15.7684 9.99452C15.7702 9.89382 15.7517 9.79379 15.714 9.7004C15.6762 9.60701 15.6201 9.52218 15.5489 9.45096C15.4777 9.37974 15.3928 9.3236 15.2994 9.28588C15.2061 9.24816 15.106 9.22963 15.0053 9.23141C14.9046 9.23318 14.8053 9.25523 14.7133 9.29622C14.6213 9.33721 14.5385 9.39631 14.4698 9.47L15.5298 10.53ZM11.9998 13L11.4698 13.53C11.5395 13.5997 11.6222 13.655 11.7132 13.6927C11.8042 13.7304 11.9018 13.7498 12.0003 13.7498C12.0989 13.7498 12.1964 13.7304 12.2875 13.6927C12.3785 13.655 12.4612 13.5997 12.5308 13.53L11.9998 13ZM9.52985 9.47C9.38767 9.33752 9.19963 9.2654 9.00532 9.26882C8.81102 9.27225 8.62564 9.35097 8.48822 9.48838C8.35081 9.62579 8.2721 9.81118 8.26867 10.0055C8.26524 10.1998 8.33737 10.3878 8.46985 10.53L9.52985 9.47ZM12.7498 1C12.7498 0.801088 12.6708 0.610322 12.5302 0.46967C12.3895 0.329018 12.1988 0.25 11.9998 0.25C11.8009 0.25 11.6102 0.329018 11.4695 0.46967C11.3289 0.610322 11.2498 0.801088 11.2498 1H12.7498ZM14.4698 9.47L11.4698 12.47L12.5298 13.53L15.5298 10.53L14.4698 9.47ZM12.5308 12.47L9.53085 9.47L8.46985 10.53L11.4698 13.53L12.5308 12.47ZM12.7508 13V1H11.2498V13H12.7508Z" fill="#28303F"/>
</svg>
