<svg width="12" height="13" viewBox="0 0 12 13" fill="none" xmlns="http://www.w3.org/2000/svg">
<path id="Vector" d="M3.33333 7.8C3.14444 7.8 2.986 7.7376 2.858 7.6128C2.73 7.488 2.66622 7.33373 2.66667 7.15C2.66667 6.96583 2.73067 6.81135 2.85867 6.68655C2.98667 6.56175 3.14489 6.49957 3.33333 6.5C3.52222 6.5 3.68067 6.5624 3.80867 6.6872C3.93667 6.812 4.00044 6.96627 4 7.15C4 7.33417 3.936 7.48865 3.808 7.61345C3.68 7.73825 3.52178 7.80043 3.33333 7.8ZM6 7.8C5.81111 7.8 5.65267 7.7376 5.52467 7.6128C5.39667 7.488 5.33289 7.33373 5.33333 7.15C5.33333 6.96583 5.39733 6.81135 5.52533 6.68655C5.65333 6.56175 5.81156 6.49957 6 6.5C6.18889 6.5 6.34733 6.5624 6.47533 6.6872C6.60333 6.812 6.66711 6.96627 6.66667 7.15C6.66667 7.33417 6.60267 7.48865 6.47467 7.61345C6.34667 7.73825 6.18844 7.80043 6 7.8ZM8.66667 7.8C8.47778 7.8 8.31933 7.7376 8.19133 7.6128C8.06333 7.488 7.99956 7.33373 8 7.15C8 6.96583 8.064 6.81135 8.192 6.68655C8.32 6.56175 8.47822 6.49957 8.66667 6.5C8.85555 6.5 9.014 6.5624 9.142 6.6872C9.27 6.812 9.33378 6.96627 9.33333 7.15C9.33333 7.33417 9.26933 7.48865 9.14133 7.61345C9.01333 7.73825 8.85511 7.80043 8.66667 7.8ZM1.33333 13C0.966668 13 0.652668 12.8726 0.391334 12.6178C0.130001 12.363 -0.000443312 12.0571 1.13186e-06 11.7V2.6C1.13186e-06 2.2425 0.130668 1.93635 0.392001 1.68155C0.653334 1.42675 0.967112 1.29957 1.33333 1.3H2V0H3.33333V1.3H8.66667V0H10V1.3H10.6667C11.0333 1.3 11.3473 1.4274 11.6087 1.6822C11.87 1.937 12.0004 2.24293 12 2.6V11.7C12 12.0575 11.8693 12.3636 11.608 12.6184C11.3467 12.8732 11.0329 13.0004 10.6667 13H1.33333ZM1.33333 11.7H10.6667V5.2H1.33333V11.7ZM1.33333 3.9H10.6667V2.6H1.33333V3.9Z" fill="white"/>
</svg>
