<svg width="15" height="15" viewBox="0 0 15 15" fill="none" xmlns="http://www.w3.org/2000/svg">
<g id="Group">
<path id="Vector" d="M2 3C1.73478 3 1.48043 3.10536 1.29289 3.29289C1.10536 3.48043 1 3.73478 1 4V13C1 13.2652 1.10536 13.5196 1.29289 13.7071C1.48043 13.8946 1.73478 14 2 14H13C13.2652 14 13.5196 13.8946 13.7071 13.7071C13.8946 13.5196 14 13.2652 14 13V4C14 3.73478 13.8946 3.48043 13.7071 3.29289C13.5196 3.10536 13.2652 3 13 3H11M4 1V5M11 1V5M4 3H9" stroke="#00F8E9" stroke-linecap="round" stroke-linejoin="round"/>
<path id="Vector_2" d="M7.5 8C8.5 6 10.5 7 10.5 8.5C10.5 10.5 7.5 11.5 7.5 11.5C7.5 11.5 4.5 10.5 4.5 8.5C4.5 7 6.5 6 7.5 8Z" stroke="#00F8E9" stroke-linecap="round" stroke-linejoin="round"/>
</g>
</svg>
