<svg width="31" height="30" viewBox="0 0 31 30" fill="none" xmlns="http://www.w3.org/2000/svg">
<g id="mdi:event-star">
<g id="Vector">
<mask id="path-1-inside-1_45_762" fill="white">
<path d="M24.5417 23.75H6.45833V10H24.5417M20.6667 1.25V3.75H10.3333V1.25H7.75V3.75H6.45833C5.0375 3.75 3.875 4.875 3.875 6.25V23.75C3.875 24.413 4.14717 25.0489 4.63164 25.5178C5.11611 25.9866 5.77319 26.25 6.45833 26.25H24.5417C25.9754 26.25 27.125 25.1375 27.125 23.75V6.25C27.125 5.58696 26.8528 4.95107 26.3684 4.48223C25.8839 4.01339 25.2268 3.75 24.5417 3.75H23.25V1.25M14.0533 15H9.39042L13.1621 17.6375L11.7283 21.95L15.5 19.2875L19.2717 21.95L17.825 17.65L21.5967 15H16.9467L15.5 10.7L14.0533 15Z"/>
</mask>
<path d="M24.5417 23.75H6.45833V10H24.5417M20.6667 1.25V3.75H10.3333V1.25H7.75V3.75H6.45833C5.0375 3.75 3.875 4.875 3.875 6.25V23.75C3.875 24.413 4.14717 25.0489 4.63164 25.5178C5.11611 25.9866 5.77319 26.25 6.45833 26.25H24.5417C25.9754 26.25 27.125 25.1375 27.125 23.75V6.25C27.125 5.58696 26.8528 4.95107 26.3684 4.48223C25.8839 4.01339 25.2268 3.75 24.5417 3.75H23.25V1.25M14.0533 15H9.39042L13.1621 17.6375L11.7283 21.95L15.5 19.2875L19.2717 21.95L17.825 17.65L21.5967 15H16.9467L15.5 10.7L14.0533 15Z" fill="white"/>
<path d="M6.45833 23.75H5.45833V24.75H6.45833V23.75ZM6.45833 10V9H5.45833V10H6.45833ZM20.6667 3.75V4.75H21.6667V3.75H20.6667ZM10.3333 3.75H9.33333V4.75H10.3333V3.75ZM10.3333 1.25H11.3333V0.25H10.3333V1.25ZM7.75 1.25V0.25H6.75V1.25H7.75ZM7.75 3.75V4.75H8.75V3.75H7.75ZM3.875 23.75H2.875H3.875ZM23.25 3.75H22.25V4.75H23.25V3.75ZM14.0533 15V16H14.772L15.0011 15.3189L14.0533 15ZM9.39042 15V14H6.21542L8.81734 15.8195L9.39042 15ZM13.1621 17.6375L14.111 17.953L14.3463 17.2453L13.7352 16.818L13.1621 17.6375ZM11.7283 21.95L10.7794 21.6345L9.81959 24.5215L12.305 22.767L11.7283 21.95ZM15.5 19.2875L16.0767 18.4705L15.5 18.0634L14.9233 18.4705L15.5 19.2875ZM19.2717 21.95L18.695 22.767L21.1954 24.5321L20.2195 21.6311L19.2717 21.95ZM17.825 17.65L17.2501 16.8318L16.6391 17.2611L16.8772 17.9689L17.825 17.65ZM21.5967 15L22.1716 15.8182L24.7594 14H21.5967V15ZM16.9467 15L15.9989 15.3189L16.228 16H16.9467V15ZM15.5 10.7L16.4478 10.3811L15.5 7.56394L14.5522 10.3811L15.5 10.7ZM24.5417 22.75H6.45833V24.75H24.5417V22.75ZM7.45833 23.75V10H5.45833V23.75H7.45833ZM6.45833 11H24.5417V9H6.45833V11ZM19.6667 1.25V3.75H21.6667V1.25H19.6667ZM20.6667 2.75H10.3333V4.75H20.6667V2.75ZM11.3333 3.75V1.25H9.33333V3.75H11.3333ZM10.3333 0.25H7.75V2.25H10.3333V0.25ZM6.75 1.25V3.75H8.75V1.25H6.75ZM7.75 2.75H6.45833V4.75H7.75V2.75ZM6.45833 2.75C4.51638 2.75 2.875 4.29206 2.875 6.25H4.875C4.875 5.45794 5.55862 4.75 6.45833 4.75V2.75ZM2.875 6.25V23.75H4.875V6.25H2.875ZM2.875 23.75C2.875 24.689 3.26077 25.5827 3.93622 26.2364L5.32706 24.7992C5.03357 24.5151 4.875 24.137 4.875 23.75H2.875ZM3.93622 26.2364C4.61055 26.889 5.51836 27.25 6.45833 27.25V25.25C6.02802 25.25 5.62167 25.0843 5.32706 24.7992L3.93622 26.2364ZM6.45833 27.25H24.5417V25.25H6.45833V27.25ZM24.5417 27.25C26.4965 27.25 28.125 25.7204 28.125 23.75H26.125C26.125 24.5546 25.4543 25.25 24.5417 25.25V27.25ZM28.125 23.75V6.25H26.125V23.75H28.125ZM28.125 6.25C28.125 5.31096 27.7392 4.41729 27.0638 3.76363L25.6729 5.20083C25.9664 5.48486 26.125 5.86295 26.125 6.25H28.125ZM27.0638 3.76363C26.3894 3.11105 25.4816 2.75 24.5417 2.75V4.75C24.972 4.75 25.3783 4.91573 25.6729 5.20083L27.0638 3.76363ZM24.5417 2.75H23.25V4.75H24.5417V2.75ZM24.25 3.75V1.25H22.25V3.75H24.25ZM14.0533 14H9.39042V16H14.0533V14ZM8.81734 15.8195L12.589 18.457L13.7352 16.818L9.96349 14.1805L8.81734 15.8195ZM12.2132 17.322L10.7794 21.6345L12.6773 22.2655L14.111 17.953L12.2132 17.322ZM12.305 22.767L16.0767 20.1045L14.9233 18.4705L11.1516 21.133L12.305 22.767ZM14.9233 20.1045L18.695 22.767L19.8484 21.133L16.0767 18.4705L14.9233 20.1045ZM20.2195 21.6311L18.7728 17.3311L16.8772 17.9689L18.3239 22.2689L20.2195 21.6311ZM18.3999 18.4682L22.1716 15.8182L21.0218 14.1818L17.2501 16.8318L18.3999 18.4682ZM21.5967 14H16.9467V16H21.5967V14ZM17.8945 14.6811L16.4478 10.3811L14.5522 11.0189L15.9989 15.3189L17.8945 14.6811ZM14.5522 10.3811L13.1055 14.6811L15.0011 15.3189L16.4478 11.0189L14.5522 10.3811Z" fill="white" mask="url(#path-1-inside-1_45_762)"/>
</g>
</g>
</svg>
