<svg width="32" height="33" viewBox="0 0 32 33" fill="none" xmlns="http://www.w3.org/2000/svg">
<path d="M27 6.1875H5.00004C4.4696 6.1875 3.9609 6.4048 3.58582 6.79159C3.21075 7.17839 3.00004 7.70299 3.00004 8.25V28.875C2.99773 29.2683 3.10562 29.6539 3.31074 29.9855C3.51585 30.3171 3.80947 30.5805 4.15629 30.7441C4.42057 30.871 4.7085 30.937 5.00004 30.9375C5.46954 30.9363 5.92347 30.7637 6.28129 30.4502C6.28725 30.4462 6.29271 30.4415 6.29754 30.4361L10.3125 26.8125H27C27.5305 26.8125 28.0392 26.5952 28.4142 26.2084C28.7893 25.8216 29 25.297 29 24.75V8.25C29 7.70299 28.7893 7.17839 28.4142 6.79159C28.0392 6.4048 27.5305 6.1875 27 6.1875ZM10.5 18.0469C10.2034 18.0469 9.91336 17.9562 9.66668 17.7862C9.42001 17.6162 9.22775 17.3746 9.11422 17.092C9.00069 16.8093 8.97098 16.4983 9.02886 16.1982C9.08674 15.8982 9.2296 15.6225 9.43938 15.4062C9.64915 15.1899 9.91643 15.0425 10.2074 14.9828C10.4984 14.9232 10.8 14.9538 11.0741 15.0709C11.3482 15.188 11.5824 15.3862 11.7472 15.6406C11.9121 15.895 12 16.1941 12 16.5C12 16.9103 11.842 17.3037 11.5607 17.5938C11.2794 17.8839 10.8979 18.0469 10.5 18.0469ZM16 18.0469C15.7034 18.0469 15.4134 17.9562 15.1667 17.7862C14.92 17.6162 14.7277 17.3746 14.6142 17.092C14.5007 16.8093 14.471 16.4983 14.5289 16.1982C14.5867 15.8982 14.7296 15.6225 14.9394 15.4062C15.1492 15.1899 15.4164 15.0425 15.7074 14.9828C15.9984 14.9232 16.3 14.9538 16.5741 15.0709C16.8481 15.188 17.0824 15.3862 17.2472 15.6406C17.4121 15.895 17.5 16.1941 17.5 16.5C17.5 16.9103 17.342 17.3037 17.0607 17.5938C16.7794 17.8839 16.3979 18.0469 16 18.0469ZM21.5 18.0469C21.2034 18.0469 20.9134 17.9562 20.6667 17.7862C20.42 17.6162 20.2277 17.3746 20.1142 17.092C20.0007 16.8093 19.971 16.4983 20.0289 16.1982C20.0867 15.8982 20.2296 15.6225 20.4394 15.4062C20.6492 15.1899 20.9164 15.0425 21.2074 14.9828C21.4984 14.9232 21.8 14.9538 22.0741 15.0709C22.3481 15.188 22.5824 15.3862 22.7472 15.6406C22.9121 15.895 23 16.1941 23 16.5C23 16.9103 22.842 17.3037 22.5607 17.5938C22.2794 17.8839 21.8979 18.0469 21.5 18.0469Z" fill="white"/>
</svg>
