<svg width="27" height="27" viewBox="0 0 27 27" fill="none" xmlns="http://www.w3.org/2000/svg">
<path d="M14.7917 26.625L17.375 25.1667L19.9584 26.625V16.4167H14.7917M19.9584 9.125V6.20833L17.375 7.66667L14.7917 6.20833V9.125L12.2084 10.5833L14.7917 12.0417V14.9583L17.375 13.5L19.9584 14.9583V12.0417L22.5417 10.5833M23.8334 0.375H3.16671C2.48156 0.375 1.82448 0.682291 1.34001 1.22927C0.855546 1.77625 0.583374 2.51812 0.583374 3.29167V17.875C0.583374 18.6485 0.855546 19.3904 1.34001 19.9374C1.82448 20.4844 2.48156 20.7917 3.16671 20.7917H12.2084V17.875H3.16671V3.29167H23.8334V17.875H22.5417V20.7917H23.8334C24.5185 20.7917 25.1756 20.4844 25.6601 19.9374C26.1445 19.3904 26.4167 18.6485 26.4167 17.875V3.29167C26.4167 2.51812 26.1445 1.77625 25.6601 1.22927C25.1756 0.682291 24.5185 0.375 23.8334 0.375ZM12.2084 7.66667H4.45837V4.75H12.2084M9.62504 12.0417H4.45837V9.125H9.62504M12.2084 16.4167H4.45837V13.5H12.2084V16.4167Z" fill="#FFC83C"/>
</svg>
