<svg width="16" height="19" viewBox="0 0 16 19" fill="none" xmlns="http://www.w3.org/2000/svg">
<path id="Vector" fill-rule="evenodd" clip-rule="evenodd" d="M7.13354 0H8.86646C10.3746 0 11.5692 0 12.5038 0.135209C13.4654 0.274837 14.2441 0.568233 14.8587 1.22926C15.4724 1.89116 15.7448 2.72981 15.8745 3.76554C16 4.77298 16 6.05879 16 7.68307V11.3169C16 12.9412 16 14.2279 15.8745 15.2345C15.7448 16.2702 15.4724 17.1088 14.8587 17.7707C14.2441 18.4318 13.4654 18.7252 12.5038 18.8648C11.5684 19 10.3746 19 8.86646 19H7.13354C5.62544 19 4.43077 19 3.49621 18.8648C2.53456 18.7252 1.7559 18.4318 1.14133 17.7707C0.52759 17.1088 0.25518 16.2702 0.125539 15.2345C9.78128e-08 14.227 0 12.9412 0 11.3169V7.68307C0 6.05879 9.78128e-08 4.77209 0.125539 3.76554C0.25518 2.72981 0.52759 1.89116 1.14133 1.22926C1.7559 0.568233 2.53456 0.274837 3.49621 0.135209C4.43159 0 5.62544 0 7.13354 0ZM3.65949 1.4493C2.83405 1.5686 2.35815 1.79307 2.01026 2.16688C1.664 2.5407 1.45559 3.05326 1.34482 3.94228C1.23159 4.85074 1.22995 6.0473 1.22995 7.73256V11.2674C1.22995 12.9527 1.23159 14.1501 1.34482 15.0586C1.45559 15.9467 1.664 16.4593 2.01108 16.8331C2.35815 17.2069 2.83405 17.4314 3.65949 17.5507C4.50297 17.6727 5.61395 17.6744 7.17867 17.6744H8.81969C10.3844 17.6744 11.4962 17.6727 12.3397 17.5507C13.1643 17.4314 13.6402 17.2069 13.9873 16.8331C14.3344 16.4593 14.5428 15.9467 14.6535 15.0577C14.7668 14.1501 14.7684 12.9527 14.7684 11.2674V7.73256C14.7684 6.0473 14.7668 4.85074 14.6535 3.9414C14.5428 3.05326 14.3344 2.5407 13.9873 2.16688C13.6402 1.79307 13.1643 1.5686 12.3389 1.4493C11.4962 1.32735 10.3844 1.32558 8.81969 1.32558H7.17867C5.61395 1.32558 4.5038 1.32735 3.65949 1.4493ZM4.10256 7.73256C4.10256 7.55678 4.1674 7.38819 4.28281 7.26389C4.39821 7.1396 4.55474 7.06977 4.71795 7.06977H11.2821C11.4453 7.06977 11.6018 7.1396 11.7172 7.26389C11.8326 7.38819 11.8974 7.55678 11.8974 7.73256C11.8974 7.90834 11.8326 8.07692 11.7172 8.20122C11.6018 8.32552 11.4453 8.39535 11.2821 8.39535H4.71795C4.55474 8.39535 4.39821 8.32552 4.28281 8.20122C4.1674 8.07692 4.10256 7.90834 4.10256 7.73256ZM4.10256 11.2674C4.10256 11.0917 4.1674 10.9231 4.28281 10.7988C4.39821 10.6745 4.55474 10.6047 4.71795 10.6047H8.82051C8.98372 10.6047 9.14025 10.6745 9.25566 10.7988C9.37106 10.9231 9.4359 11.0917 9.4359 11.2674C9.4359 11.4432 9.37106 11.6118 9.25566 11.7361C9.14025 11.8604 8.98372 11.9302 8.82051 11.9302H4.71795C4.55474 11.9302 4.39821 11.8604 4.28281 11.7361C4.1674 11.6118 4.10256 11.4432 4.10256 11.2674Z" fill="white"/>
</svg>
