<svg width="20" height="19" viewBox="0 0 20 19" fill="none" xmlns="http://www.w3.org/2000/svg">
<path d="M18.6483 7.02296L17.2466 5.69218L17.9975 4.95549L14.7935 1.91371L14.0175 2.62663L12.5907 1.27208L13.3417 0.535398C13.7255 0.171017 14.2011 -0.00737128 14.7685 0.000233187C15.3358 0.00783766 15.8114 0.194147 16.1952 0.559162L19.4243 3.62471C19.8081 3.98909 20 4.43649 20 4.9669C20 5.49731 19.8081 5.94503 19.4243 6.31004L18.6483 7.02296ZM6.63329 18.4534C6.24948 18.8178 5.77789 19 5.21852 19C4.65916 19 4.18824 18.8178 3.80576 18.4534L0.575719 15.3879C0.191906 15.0235 0 14.5758 0 14.0447C0 13.5137 0.191906 13.0663 0.575719 12.7025L1.32666 11.9896L2.75344 13.3442L1.97747 14.0571L5.20651 17.1226L5.95745 16.386L7.38423 17.7405L6.63329 18.4534ZM16.5707 10.4687L17.9975 9.11419L10.413 1.91371L8.98623 3.26825L16.5707 10.4687ZM9.56195 17.1226L10.9887 15.7443L3.42929 8.56762L1.97747 9.92216L9.56195 17.1226ZM9.41176 11.5619L12.1652 8.97161L10.5632 7.45071L7.83479 10.0647L9.41176 11.5619ZM10.9887 18.4534C10.6049 18.8178 10.1293 19 9.56195 19C8.99458 19 8.51898 18.8178 8.13517 18.4534L0.575719 11.2767C0.191906 10.9123 0 10.4608 0 9.92216C0 9.38352 0.191906 8.932 0.575719 8.56762L2.0025 7.21307C2.38632 6.84869 2.85757 6.6665 3.41627 6.6665C3.97497 6.6665 4.44656 6.84869 4.83104 7.21307L6.40801 8.7102L9.16145 6.09617L7.58448 4.6228C7.20067 4.25842 7.00876 3.8069 7.00876 3.26825C7.00876 2.7296 7.20067 2.27809 7.58448 1.91371L9.01126 0.559162C9.39508 0.194781 9.86667 0.0125905 10.426 0.0125905C10.9854 0.0125905 11.4567 0.194781 11.8398 0.559162L19.4243 7.75964C19.8081 8.12402 20 8.57142 20 9.10183C20 9.63225 19.8081 10.08 19.4243 10.445L17.9975 11.7995C17.6137 12.1639 17.1381 12.3461 16.5707 12.3461C16.0033 12.3461 15.5277 12.1639 15.1439 11.7995L13.592 10.3024L10.8385 12.9164L12.4155 14.4136C12.7993 14.7779 12.9912 15.2256 12.9912 15.7567C12.9912 16.2877 12.7993 16.7351 12.4155 17.0989L10.9887 18.4534Z" fill="url(#paint0_linear_54_3659)"/>
<defs>
<linearGradient id="paint0_linear_54_3659" x1="10" y1="0" x2="10" y2="19" gradientUnits="userSpaceOnUse">
<stop stop-color="#727DCD"/>
<stop offset="1" stop-color="#58E1FF"/>
</linearGradient>
</defs>
</svg>
