<svg width="22" height="21" viewBox="0 0 22 21" fill="none" xmlns="http://www.w3.org/2000/svg">
<g id="eva:email-outline">
<g id="evaEmailOutline0">
<g id="evaEmailOutline1">
<path id="evaEmailOutline2" d="M17.4166 3.5H4.58331C3.85397 3.5 3.15449 3.77656 2.63877 4.26884C2.12304 4.76113 1.83331 5.42881 1.83331 6.125V14.875C1.83331 15.5712 2.12304 16.2389 2.63877 16.7312C3.15449 17.2234 3.85397 17.5 4.58331 17.5H17.4166C18.146 17.5 18.8455 17.2234 19.3612 16.7312C19.8769 16.2389 20.1666 15.5712 20.1666 14.875V6.125C20.1666 5.42881 19.8769 4.76113 19.3612 4.26884C18.8455 3.77656 18.146 3.5 17.4166 3.5ZM16.8025 5.25L11 9.40625L5.19748 5.25H16.8025ZM17.4166 15.75H4.58331C4.3402 15.75 4.10704 15.6578 3.93513 15.4937C3.76322 15.3296 3.66665 15.1071 3.66665 14.875V6.34375L10.45 11.2C10.6087 11.3136 10.8016 11.375 11 11.375C11.1983 11.375 11.3913 11.3136 11.55 11.2L18.3333 6.34375V14.875C18.3333 15.1071 18.2367 15.3296 18.0648 15.4937C17.8929 15.6578 17.6598 15.75 17.4166 15.75Z" fill="url(#paint0_linear_63_6169)" fill-opacity="0.7"/>
</g>
</g>
</g>
<defs>
<linearGradient id="paint0_linear_63_6169" x1="11" y1="3.5" x2="11" y2="17.5" gradientUnits="userSpaceOnUse">
<stop stop-color="#727DCD"/>
<stop offset="1" stop-color="#58E1FF"/>
</linearGradient>
</defs>
</svg>
