<svg width="20" height="19" viewBox="0 0 20 19" fill="none" xmlns="http://www.w3.org/2000/svg">
<path d="M10 3.5625C3.78844 3.5625 0.625 9.5 0.625 9.5C0.625 9.5 3.78844 15.4375 10 15.4375C16.2122 15.4375 19.375 9.5 19.375 9.5C19.375 9.5 16.2122 3.5625 10 3.5625ZM10 14.4471C4.82375 14.4471 2.1875 9.5 2.1875 9.5C2.1875 9.5 4.82375 4.55169 10 4.55169C15.1769 4.55169 17.8125 9.5 17.8125 9.5C17.8125 9.5 15.1769 14.4471 10 14.4471Z" fill="#00F8E9"/>
<path d="M9.96875 13.8047C7.47031 13.8047 5.4375 11.8735 5.4375 9.5C5.4375 7.12648 7.47031 5.19531 9.96875 5.19531C12.4672 5.19531 14.5 7.12648 14.5 9.5C14.5 11.8735 12.4675 13.8047 9.96875 13.8047ZM9.96875 6.08594C7.98719 6.08594 6.375 7.61752 6.375 9.5C6.375 11.3825 7.98719 12.9141 9.96875 12.9141C11.9503 12.9141 13.5625 11.3825 13.5625 9.5C13.5625 7.61752 11.9503 6.08594 9.96875 6.08594Z" fill="#00F8E9"/>
<path d="M12.3125 9.49801C12.3125 10.7294 11.2628 11.7275 9.97 11.7275C9.6619 11.7275 9.35683 11.6698 9.07222 11.5577C8.78761 11.4456 8.52903 11.2814 8.31126 11.0743C8.09349 10.8673 7.9208 10.6215 7.80305 10.351C7.6853 10.0806 7.6248 9.7907 7.625 9.49801C7.625 8.26865 8.67438 7.27441 9.97 7.27441C11.2628 7.27441 12.3125 8.26895 12.3125 9.49801Z" fill="#00F8E9"/>
</svg>
