<svg width="18" height="18" viewBox="0 0 18 18" fill="none" xmlns="http://www.w3.org/2000/svg">
<path d="M16.25 14.25H5.75V6H16.25M14 0.75V2.25H8V0.75H6.5V2.25H5.75C4.925 2.25 4.25 2.925 4.25 3.75V14.25C4.25 14.6478 4.40804 15.0294 4.68934 15.3107C4.97064 15.592 5.35218 15.75 5.75 15.75H16.25C17.0825 15.75 17.75 15.0825 17.75 14.25V3.75C17.75 3.35218 17.592 2.97064 17.3107 2.68934C17.0294 2.40804 16.6478 2.25 16.25 2.25H15.5V0.75M10.16 9H7.4525L9.6425 10.5825L8.81 13.17L11 11.5725L13.19 13.17L12.35 10.59L14.54 9H11.84L11 6.42L10.16 9Z" fill="#E6A201"/>
</svg>
