<svg width="36" height="30" viewBox="0 0 36 30" fill="none" xmlns="http://www.w3.org/2000/svg">
<g id="mdi:event-star">
<path id="Vector" d="M27.8962 23.75H7.47953V10H27.8962M23.5212 1.25V3.75H11.8545V1.25H8.93787V3.75H7.47953C5.87537 3.75 4.56287 4.875 4.56287 6.25V23.75C4.56287 24.413 4.87016 25.0489 5.41714 25.5178C5.96412 25.9866 6.70598 26.25 7.47953 26.25H27.8962C29.5149 26.25 30.8129 25.1375 30.8129 23.75V6.25C30.8129 5.58696 30.5056 4.95107 29.9586 4.48223C29.4116 4.01339 28.6697 3.75 27.8962 3.75H26.4379V1.25M16.0545 15H10.7899L15.0483 17.6375L13.4295 21.95L17.6879 19.2875L21.9462 21.95L20.3129 17.65L24.5712 15H19.3212L17.6879 10.7L16.0545 15Z" fill="white"/>
</g>
</svg>
