<svg width="25" height="15" viewBox="0 0 25 15" fill="none" xmlns="http://www.w3.org/2000/svg">
<path id="Vector" d="M1.17188 0H23.8281C24.1389 0 24.437 0.124765 24.6568 0.346847C24.8765 0.56893 25 0.870138 25 1.18421C25 1.49828 24.8765 1.79949 24.6568 2.02157C24.437 2.24366 24.1389 2.36842 23.8281 2.36842H1.17188C0.861074 2.36842 0.563003 2.24366 0.343234 2.02157C0.123465 1.79949 0 1.49828 0 1.18421C0 0.870138 0.123465 0.56893 0.343234 0.346847C0.563003 0.124765 0.861074 0 1.17188 0ZM4.6875 7.5C4.6875 7.18593 4.81097 6.88472 5.03073 6.66264C5.2505 6.44055 5.54857 6.31579 5.85938 6.31579H19.1406C19.4514 6.31579 19.7495 6.44055 19.9693 6.66264C20.189 6.88472 20.3125 7.18593 20.3125 7.5C20.3125 7.81407 20.189 8.11528 19.9693 8.33736C19.7495 8.55945 19.4514 8.68421 19.1406 8.68421H5.85938C5.54857 8.68421 5.2505 8.55945 5.03073 8.33736C4.81097 8.11528 4.6875 7.81407 4.6875 7.5ZM9.375 13.8158C9.375 13.5017 9.49846 13.2005 9.71823 12.9784C9.938 12.7563 10.2361 12.6316 10.5469 12.6316H14.4531C14.7639 12.6316 15.062 12.7563 15.2818 12.9784C15.5015 13.2005 15.625 13.5017 15.625 13.8158C15.625 14.1299 15.5015 14.4311 15.2818 14.6532C15.062 14.8752 14.7639 15 14.4531 15H10.5469C10.2361 15 9.938 14.8752 9.71823 14.6532C9.49846 14.4311 9.375 14.1299 9.375 13.8158Z" fill="white" fill-opacity="0.6"/>
</svg>
