<svg width="23" height="25" viewBox="0 0 23 25" fill="none" xmlns="http://www.w3.org/2000/svg">
<path d="M11.5 0.850098C5.14855 0.850098 -1.90735e-06 6.22223 -1.90735e-06 12.8495C-1.90735e-06 19.4768 5.14855 24.8489 11.5 24.8489C13.3354 24.8515 15.1445 24.3939 16.775 23.5146L21.1749 24.7949C21.4204 24.8664 21.6797 24.8685 21.9262 24.801C22.1727 24.7335 22.3976 24.5988 22.5778 24.4108C22.758 24.2227 22.8871 23.9881 22.9518 23.7309C23.0165 23.4737 23.0144 23.2031 22.9459 22.947L21.7177 18.3596C22.5626 16.6568 23.0024 14.7669 23 12.8495C23 6.22223 17.8514 0.850098 11.5 0.850098ZM11.5 2.65001C14.0925 2.65001 16.5788 3.72459 18.412 5.63737C20.2451 7.55014 21.275 10.1444 21.275 12.8495C21.275 14.6134 20.846 16.3089 20.041 17.8136L19.8685 18.1376L21.1473 22.9182L16.5623 21.5839L16.2518 21.7638C14.9473 22.5206 13.4939 22.9557 12.0033 23.0356C10.5127 23.1154 9.02427 22.8381 7.65228 22.2247C6.28029 21.6114 5.06114 20.6784 4.08831 19.4972C3.11548 18.316 2.41481 16.918 2.04003 15.4105C1.66525 13.903 1.62631 12.3259 1.92621 10.8002C2.2261 9.27456 2.85686 7.84081 3.77011 6.60893C4.68337 5.37704 5.85486 4.37974 7.19476 3.6935C8.53466 3.00726 10.0074 2.65031 11.5 2.65001Z" fill="white"/>
</svg>
