<svg width="26" height="22" viewBox="0 0 26 22" fill="none" xmlns="http://www.w3.org/2000/svg">
<path d="M14.0772 2.00318C13.9098 1.8471 13.683 1.75942 13.4464 1.75942C13.2099 1.75942 12.983 1.8471 12.8157 2.00318L2.47328 11.6607C2.39156 11.7426 2.29302 11.8083 2.18352 11.8538C2.07403 11.8994 1.95583 11.9239 1.83598 11.9259C1.71613 11.9278 1.59708 11.9072 1.48594 11.8653C1.37479 11.8234 1.27382 11.761 1.18906 11.6819C1.1043 11.6027 1.03748 11.5084 0.992588 11.4046C0.947695 11.3009 0.925648 11.1897 0.927763 11.0778C0.929878 10.9659 0.95611 10.8555 1.0049 10.7533C1.05368 10.651 1.12402 10.559 1.21172 10.4827L11.5529 0.825166C11.8016 0.592969 12.0968 0.40878 12.4217 0.283116C12.7466 0.157452 13.0948 0.0927734 13.4464 0.0927734C13.7981 0.0927734 14.1463 0.157452 14.4712 0.283116C14.7961 0.40878 15.0913 0.592969 15.34 0.825166L25.6823 10.4827C25.8449 10.64 25.9347 10.8505 25.9326 11.0691C25.9304 11.2876 25.8365 11.4966 25.6709 11.6511C25.5053 11.8056 25.2814 11.8931 25.0473 11.8949C24.8133 11.8967 24.5879 11.8126 24.4196 11.6607L14.0772 2.00318Z" fill="white"/>
<path d="M13.4464 3.7714C13.4464 3.77163 13.4463 3.77184 13.4462 3.772L3.73601 12.8392C3.66906 12.9017 3.62771 12.9876 3.62771 13.0792V19.8228C3.62771 20.973 4.62743 21.9065 5.85923 21.9065H9.87598C10.1127 21.9065 10.3398 21.8187 10.5072 21.6624C10.6745 21.5061 10.7686 21.2941 10.7686 21.073V16.072C10.7686 15.851 10.8626 15.639 11.03 15.4827C11.1974 15.3263 11.4245 15.2385 11.6612 15.2385H15.2316C15.4684 15.2385 15.6954 15.3263 15.8628 15.4827C16.0302 15.639 16.1243 15.851 16.1243 16.072V21.073C16.1243 21.2941 16.2183 21.5061 16.3857 21.6624C16.5531 21.8187 16.7801 21.9065 17.0169 21.9065H21.0336C21.6254 21.9065 22.193 21.687 22.6115 21.2962C23.03 20.9055 23.2651 20.3754 23.2651 19.8228V13.0792C23.2651 12.9876 23.2238 12.9016 23.1568 12.8392L13.4478 3.77081C13.4473 3.77032 13.4464 3.77069 13.4464 3.7714Z" fill="white"/>
</svg>
