<svg width="26" height="22" viewBox="0 0 26 22" fill="none" xmlns="http://www.w3.org/2000/svg">
<path d="M14.0772 2.00343C13.9098 1.84734 13.683 1.75967 13.4464 1.75967C13.2099 1.75967 12.983 1.84734 12.8157 2.00343L2.47328 11.6609C2.39156 11.7428 2.29302 11.8085 2.18352 11.8541C2.07403 11.8996 1.95583 11.9241 1.83598 11.9261C1.71613 11.9281 1.59708 11.9075 1.48594 11.8656C1.37479 11.8236 1.27382 11.7613 1.18906 11.6821C1.1043 11.603 1.03748 11.5087 0.992588 11.4049C0.947695 11.3011 0.925648 11.1899 0.927763 11.078C0.929878 10.9661 0.95611 10.8557 1.0049 10.7535C1.05368 10.6513 1.12402 10.5592 1.21172 10.4829L11.5529 0.82541C11.8016 0.593213 12.0968 0.409025 12.4217 0.28336C12.7466 0.157696 13.0948 0.0930176 13.4464 0.0930176C13.7981 0.0930176 14.1463 0.157696 14.4712 0.28336C14.7961 0.409025 15.0913 0.593213 15.34 0.82541L25.6823 10.4829C25.8449 10.6402 25.9347 10.8508 25.9326 11.0693C25.9304 11.2879 25.8365 11.4969 25.6709 11.6513C25.5053 11.8058 25.2814 11.8934 25.0473 11.8952C24.8133 11.897 24.5879 11.8129 24.4196 11.6609L14.0772 2.00343Z" fill="url(#paint0_linear_933_767)"/>
<path d="M13.4464 3.77189C13.4464 3.77211 13.4463 3.77233 13.4462 3.77248L3.73601 12.8396C3.66906 12.9022 3.62771 12.9881 3.62771 13.0797V19.8233C3.62771 20.9735 4.62743 21.907 5.85923 21.907H9.87598C10.1127 21.907 10.3398 21.8192 10.5072 21.6629C10.6745 21.5066 10.7686 21.2946 10.7686 21.0735V16.0725C10.7686 15.8515 10.8626 15.6395 11.03 15.4831C11.1974 15.3268 11.4245 15.239 11.6612 15.239H15.2316C15.4684 15.239 15.6954 15.3268 15.8628 15.4831C16.0302 15.6395 16.1243 15.8515 16.1243 16.0725V21.0735C16.1243 21.2946 16.2183 21.5066 16.3857 21.6629C16.5531 21.8192 16.7801 21.907 17.0169 21.907H21.0336C21.6254 21.907 22.193 21.6875 22.6115 21.2967C23.03 20.9059 23.2651 20.3759 23.2651 19.8233V13.0797C23.2651 12.9881 23.2238 12.9021 23.1568 12.8396L13.4478 3.7713C13.4473 3.77081 13.4464 3.77118 13.4464 3.77189Z" fill="url(#paint1_linear_933_767)"/>
<defs>
<linearGradient id="paint0_linear_933_767" x1="19.6814" y1="-2.42155" x2="-4.06276" y2="-0.897979" gradientUnits="userSpaceOnUse">
<stop stop-color="#727DCD"/>
<stop offset="1" stop-color="#58E1FF"/>
</linearGradient>
<linearGradient id="paint1_linear_933_767" x1="18.3558" y1="-0.0841141" x2="-0.348" y2="0.530823" gradientUnits="userSpaceOnUse">
<stop stop-color="#727DCD"/>
<stop offset="1" stop-color="#58E1FF"/>
</linearGradient>
</defs>
</svg>
