<svg width="14" height="15" viewBox="0 0 14 15" fill="none" xmlns="http://www.w3.org/2000/svg">
<g id="zondicons:location" clip-path="url(#clip0_174_6184)">
<path id="Vector" d="M7.0001 15C7.0001 15 2.1001 8.1525 2.1001 5.25C2.1001 4.56056 2.22684 3.87787 2.47309 3.24091C2.71934 2.60395 3.08027 2.0252 3.53527 1.53769C3.99028 1.05018 4.53045 0.66347 5.12495 0.399632C5.71944 0.135795 6.35662 0 7.0001 0C7.64357 0 8.28075 0.135795 8.87525 0.399632C9.46974 0.66347 10.0099 1.05018 10.4649 1.53769C10.9199 2.0252 11.2809 2.60395 11.5271 3.24091C11.7734 3.87787 11.9001 4.56056 11.9001 5.25C11.9001 8.1525 7.0001 15 7.0001 15ZM7.0001 6.75C7.3714 6.75 7.7275 6.59196 7.99005 6.31066C8.2526 6.02936 8.4001 5.64782 8.4001 5.25C8.4001 4.85218 8.2526 4.47064 7.99005 4.18934C7.7275 3.90804 7.3714 3.75 7.0001 3.75C6.62879 3.75 6.2727 3.90804 6.01015 4.18934C5.7476 4.47064 5.6001 4.85218 5.6001 5.25C5.6001 5.64782 5.7476 6.02936 6.01015 6.31066C6.2727 6.59196 6.62879 6.75 7.0001 6.75Z" fill="white"/>
</g>
<defs>
<clipPath id="clip0_174_6184">
<rect width="14" height="15" fill="white"/>
</clipPath>
</defs>
</svg>
