<svg width="16" height="17" viewBox="0 0 16 17" fill="none" xmlns="http://www.w3.org/2000/svg">
<path id="Vector" d="M7.03949 15.98C7.03949 16.2505 6.93836 16.51 6.75833 16.7012C6.57831 16.8925 6.33415 17 6.07956 17H1.59988C1.17557 17 0.768632 16.8209 0.468595 16.5021C0.168559 16.1833 0 15.7509 0 15.3V1.7C0 1.24913 0.168559 0.81673 0.468595 0.497918C0.768632 0.179107 1.17557 0 1.59988 0H6.07956C6.33415 0 6.57831 0.107464 6.75833 0.298751C6.93836 0.490038 7.03949 0.749479 7.03949 1.02C7.03949 1.29052 6.93836 1.54996 6.75833 1.74125C6.57831 1.93254 6.33415 2.04 6.07956 2.04H1.91986V14.96H6.07956C6.33415 14.96 6.57831 15.0675 6.75833 15.2588C6.93836 15.45 7.03949 15.7095 7.03949 15.98ZM15.7181 7.77835L12.5183 4.37835C12.338 4.18673 12.0934 4.07908 11.8383 4.07908C11.5833 4.07908 11.3387 4.18673 11.1584 4.37835C10.9781 4.56997 10.8767 4.82986 10.8767 5.10085C10.8767 5.37184 10.9781 5.63173 11.1584 5.82335L12.7191 7.48H6.07956C5.82497 7.48 5.58081 7.58746 5.40079 7.77875C5.22077 7.97004 5.11963 8.22948 5.11963 8.5C5.11963 8.77052 5.22077 9.02996 5.40079 9.22125C5.58081 9.41254 5.82497 9.52 6.07956 9.52H12.7191L11.1576 11.1783C10.9773 11.37 10.8759 11.6299 10.8759 11.9008C10.8759 12.1718 10.9773 12.4317 11.1576 12.6233C11.3379 12.815 11.5825 12.9226 11.8375 12.9226C12.0926 12.9226 12.3372 12.815 12.5175 12.6233L15.7173 9.22335C15.8068 9.12864 15.8779 9.01609 15.9264 8.89214C15.9749 8.76818 15.9999 8.63527 16 8.50103C16.0001 8.36678 15.9752 8.23384 15.9268 8.10983C15.8784 7.98581 15.8075 7.87317 15.7181 7.77835Z" fill="url(#paint0_linear_54_6051)" fill-opacity="0.7"/>
<defs>
<linearGradient id="paint0_linear_54_6051" x1="8" y1="0" x2="8" y2="17" gradientUnits="userSpaceOnUse">
<stop stop-color="#727DCD"/>
<stop offset="1" stop-color="#58E1FF"/>
</linearGradient>
</defs>
</svg>
