<svg width="15" height="11" viewBox="0 0 15 11" fill="none" xmlns="http://www.w3.org/2000/svg">
<path id="Vector" d="M13.8462 0H1.15387C0.847847 0 0.554362 0.0965771 0.337974 0.268485C0.121586 0.440394 2.08949e-05 0.673552 2.08949e-05 0.916667V10.0833C-0.00130969 10.2581 0.0609343 10.4295 0.179271 10.5769C0.297607 10.7243 0.467 10.8413 0.667087 10.9141C0.81956 10.9705 0.985674 10.9998 1.15387 11C1.42473 10.9995 1.68662 10.9228 1.89305 10.7834C1.89649 10.7817 1.89964 10.7795 1.90242 10.7771L4.21877 9.16667H13.8462C14.1522 9.16667 14.4457 9.07009 14.662 8.89818C14.8784 8.72627 15 8.49312 15 8.25V0.916667C15 0.673552 14.8784 0.440394 14.662 0.268485C14.4457 0.0965771 14.1522 0 13.8462 0ZM4.32694 5.27083C4.15578 5.27083 3.98847 5.23051 3.84616 5.15497C3.70385 5.07942 3.59293 4.97205 3.52743 4.84643C3.46193 4.7208 3.44479 4.58257 3.47818 4.44921C3.51157 4.31585 3.59399 4.19335 3.71502 4.0972C3.83605 4.00105 3.99024 3.93557 4.15811 3.90904C4.32598 3.88252 4.49998 3.89613 4.65811 3.94817C4.81623 4.0002 4.95139 4.08832 5.04648 4.20138C5.14157 4.31444 5.19232 4.44736 5.19232 4.58333C5.19232 4.76567 5.10115 4.94054 4.93886 5.06947C4.77657 5.1984 4.55645 5.27083 4.32694 5.27083ZM7.50001 5.27083C7.32885 5.27083 7.16154 5.23051 7.01923 5.15497C6.87692 5.07942 6.766 4.97205 6.7005 4.84643C6.635 4.7208 6.61786 4.58257 6.65126 4.44921C6.68465 4.31585 6.76707 4.19335 6.88809 4.0972C7.00912 4.00105 7.16331 3.93557 7.33118 3.90904C7.49905 3.88252 7.67305 3.89613 7.83118 3.94817C7.98931 4.0002 8.12446 4.08832 8.21955 4.20138C8.31464 4.31444 8.36539 4.44736 8.36539 4.58333C8.36539 4.76567 8.27422 4.94054 8.11193 5.06947C7.94964 5.1984 7.72952 5.27083 7.50001 5.27083ZM10.6731 5.27083C10.5019 5.27083 10.3346 5.23051 10.1923 5.15497C10.05 5.07942 9.93907 4.97205 9.87357 4.84643C9.80807 4.7208 9.79094 4.58257 9.82433 4.44921C9.85772 4.31585 9.94014 4.19335 10.0612 4.0972C10.1822 4.00105 10.3364 3.93557 10.5043 3.90904C10.6721 3.88252 10.8461 3.89613 11.0043 3.94817C11.1624 4.0002 11.2975 4.08832 11.3926 4.20138C11.4877 4.31444 11.5385 4.44736 11.5385 4.58333C11.5385 4.76567 11.4473 4.94054 11.285 5.06947C11.1227 5.1984 10.9026 5.27083 10.6731 5.27083Z" fill="#58E1FF"/>
</svg>
