<svg width="18" height="20" viewBox="0 0 18 20" fill="none" xmlns="http://www.w3.org/2000/svg">
<path d="M3.96 0.0053437C3.96 0.0053437 9.963 -0.32528 9.405 4.21475C9.405 4.21475 10.2645 1.19478 14.04 2.57776C14.04 2.57776 13.2435 5.56143 10.08 4.83567C10.08 4.83567 10.737 2.6342 13.0545 2.55356C13.0545 2.55356 11.259 2.13827 9.36 4.52118C9.36 4.52118 8.469 0.710943 5.148 0.501279C5.148 0.501279 8.532 1.28349 8.64 4.83567C8.64 4.8397 3.852 5.11791 3.96 0.0053437ZM18 12.7303C18 14.6858 17.5635 16.5728 16.56 18.0646C14.661 19.3105 11.835 20 9 20C6.1695 20 3.339 19.3105 1.44 18.0646C0.4365 16.5728 0 14.6858 0 12.7303C0 10.7788 0.7965 8.91202 1.8 7.42018C3.699 6.17429 6.1695 5.46063 9 5.46063C11.835 5.46063 14.301 6.17026 16.2 7.42018C17.2035 8.91202 18 10.7788 18 12.7303ZM5.4 16.9357C5.4 16.3107 4.8375 15.8067 4.14 15.8067C3.4425 15.8067 2.88 16.3107 2.88 16.9357C2.88 17.5606 3.4425 18.0646 4.14 18.0646C4.8375 18.0646 5.4 17.5606 5.4 16.9357ZM5.4 14.2665C5.4 13.6415 4.8375 13.1375 4.14 13.1375C3.4425 13.1375 2.88 13.6415 2.88 14.2665C2.88 14.8915 3.4425 15.3955 4.14 15.3955C4.8375 15.3955 5.4 14.8915 5.4 14.2665ZM5.4 11.5973C5.4 10.9724 4.8375 10.4684 4.14 10.4684C3.4425 10.4684 2.88 10.9724 2.88 11.5973C2.88 12.2223 3.4425 12.7263 4.14 12.7263C4.8375 12.7263 5.4 12.2223 5.4 11.5973ZM8.64 16.9357C8.64 16.3107 8.0775 15.8067 7.38 15.8067C6.6825 15.8067 6.12 16.3107 6.12 16.9357C6.12 17.5606 6.6825 18.0646 7.38 18.0646C8.0775 18.0646 8.64 17.5606 8.64 16.9357ZM8.64 14.2665C8.64 13.6415 8.0775 13.1375 7.38 13.1375C6.6825 13.1375 6.12 13.6415 6.12 14.2665C6.12 14.8915 6.6825 15.3955 7.38 15.3955C8.0775 15.3955 8.64 14.8915 8.64 14.2665ZM8.64 11.5973C8.64 10.9724 8.0775 10.4684 7.38 10.4684C6.6825 10.4684 6.12 10.9724 6.12 11.5973C6.12 12.2223 6.6825 12.7263 7.38 12.7263C8.0775 12.7263 8.64 12.2223 8.64 11.5973ZM11.88 16.9357C11.88 16.3107 11.3175 15.8067 10.62 15.8067C9.9225 15.8067 9.36 16.3107 9.36 16.9357C9.36 17.5606 9.9225 18.0646 10.62 18.0646C11.3175 18.0646 11.88 17.5606 11.88 16.9357ZM11.88 14.2665C11.88 13.6415 11.3175 13.1375 10.62 13.1375C9.9225 13.1375 9.36 13.6415 9.36 14.2665C9.36 14.8915 9.9225 15.3955 10.62 15.3955C11.3175 15.3955 11.88 14.8915 11.88 14.2665ZM11.88 11.5973C11.88 10.9724 11.3175 10.4684 10.62 10.4684C9.9225 10.4684 9.36 10.9724 9.36 11.5973C9.36 12.2223 9.9225 12.7263 10.62 12.7263C11.3175 12.7263 11.88 12.2223 11.88 11.5973ZM15.12 16.9357C15.12 16.3107 14.5575 15.8067 13.86 15.8067C13.1625 15.8067 12.6 16.3107 12.6 16.9357C12.6 17.5606 13.1625 18.0646 13.86 18.0646C14.5575 18.0646 15.12 17.5606 15.12 16.9357ZM15.12 14.2665C15.12 13.6415 14.5575 13.1375 13.86 13.1375C13.1625 13.1375 12.6 13.6415 12.6 14.2665C12.6 14.8915 13.1625 15.3955 13.86 15.3955C14.5575 15.3955 15.12 14.8915 15.12 14.2665ZM15.12 11.5973C15.12 10.9724 14.5575 10.4684 13.86 10.4684C13.1625 10.4684 12.6 10.9724 12.6 11.5973C12.6 12.2223 13.1625 12.7263 13.86 12.7263C14.5575 12.7263 15.12 12.2223 15.12 11.5973ZM16.2 10.0007C15.984 9.10152 15.867 8.51285 15.48 7.74274C13.734 6.94037 11.4075 6.4525 9 6.4525C6.5925 6.4525 4.266 6.94037 2.52 7.74274C2.124 8.52898 2.016 9.10958 1.8 10.0007C3.699 9.68213 6.2415 9.40392 9 9.40392C11.7585 9.40392 14.301 9.68213 16.2 10.0007Z" fill="url(#paint0_linear_54_3733)"/>
<defs>
<linearGradient id="paint0_linear_54_3733" x1="9" y1="0" x2="9" y2="20" gradientUnits="userSpaceOnUse">
<stop stop-color="#727DCD"/>
<stop offset="1" stop-color="#58E1FF"/>
</linearGradient>
</defs>
</svg>
