<svg width="22" height="24" viewBox="0 0 22 24" fill="none" xmlns="http://www.w3.org/2000/svg">
<g id="material-symbols:order-approve-rounded">
<path id="Vector" d="M15.8354 18.125L15.4458 17.7C15.3083 17.55 15.1442 17.475 14.9536 17.475C14.7629 17.475 14.5985 17.55 14.4604 17.7C14.3229 17.85 14.2542 18.025 14.2542 18.225C14.2542 18.425 14.3229 18.6 14.4604 18.75L15.3542 19.725C15.4917 19.875 15.6521 19.95 15.8354 19.95C16.0187 19.95 16.1792 19.875 16.3167 19.725L18.5396 17.35C18.6771 17.2 18.7458 17.0207 18.7458 16.812C18.7458 16.6033 18.6771 16.4243 18.5396 16.275C18.4021 16.125 18.2377 16.05 18.0464 16.05C17.8551 16.05 17.6911 16.125 17.5542 16.275L15.8354 18.125ZM15.5833 9C15.8431 9 16.0609 8.904 16.2369 8.712C16.4129 8.52 16.5006 8.28267 16.5 8C16.5 7.71667 16.412 7.479 16.236 7.287C16.06 7.095 15.8424 6.99934 15.5833 7H6.41667C6.15694 7 5.93908 7.096 5.76308 7.288C5.58708 7.48 5.49939 7.71734 5.5 8C5.5 8.28334 5.588 8.521 5.764 8.713C5.94 8.905 6.15756 9.00067 6.41667 9H15.5833ZM16.5 23C15.2319 23 14.1512 22.5123 13.2577 21.537C12.3643 20.5617 11.9173 19.3827 11.9167 18C11.9167 16.6167 12.3637 15.4373 13.2577 14.462C14.1518 13.4867 15.2326 12.9993 16.5 13C17.7681 13 18.8491 13.4877 19.7432 14.463C20.6372 15.4383 21.0839 16.6173 21.0833 18C21.0833 19.3833 20.6363 20.5627 19.7423 21.538C18.8482 22.5133 17.7674 23.0007 16.5 23ZM4.58333 3H17.4167C17.9208 3 18.3526 3.196 18.7119 3.588C19.0712 3.98 19.2506 4.45067 19.25 5V11.675C18.8222 11.4417 18.3752 11.2707 17.9089 11.162C17.4426 11.0533 16.973 10.9993 16.5 11H6.41667C6.15694 11 5.93908 11.096 5.76308 11.288C5.58708 11.48 5.49939 11.7173 5.5 12C5.5 12.2833 5.588 12.521 5.764 12.713C5.94 12.905 6.15756 13.0007 6.41667 13H12.0083C11.7486 13.2833 11.5081 13.5917 11.2869 13.925C11.0657 14.2583 10.8707 14.6167 10.7021 15H6.41667C6.15694 15 5.93908 15.096 5.76308 15.288C5.58708 15.48 5.49939 15.7173 5.5 16C5.5 16.2833 5.588 16.521 5.764 16.713C5.94 16.905 6.15756 17.0007 6.41667 17H10.1521C10.1215 17.1667 10.1023 17.3293 10.0943 17.488C10.0864 17.6467 10.0827 17.8173 10.0833 18C10.0833 18.7 10.1713 19.371 10.3473 20.013C10.5233 20.655 10.7867 21.2673 11.1375 21.85C11.0611 21.8667 10.9808 21.854 10.8964 21.812C10.8121 21.77 10.7397 21.716 10.6792 21.65L9.94583 20.85C9.85417 20.75 9.74722 20.7 9.625 20.7C9.50278 20.7 9.39583 20.75 9.30417 20.85L8.57083 21.65C8.47917 21.75 8.37222 21.8 8.25 21.8C8.12778 21.8 8.02083 21.75 7.92917 21.65L7.19583 20.85C7.10417 20.75 6.99722 20.7 6.875 20.7C6.75278 20.7 6.64583 20.75 6.55417 20.85L5.82083 21.65C5.72917 21.75 5.62222 21.8 5.5 21.8C5.37778 21.8 5.27083 21.75 5.17917 21.65L4.44583 20.85C4.35417 20.75 4.24722 20.7 4.125 20.7C4.00278 20.7 3.89583 20.75 3.80417 20.85L3.07083 21.65L2.75 21.875V5C2.75 4.45 2.92967 3.979 3.289 3.587C3.64833 3.195 4.07978 2.99934 4.58333 3Z" fill="url(#paint0_linear_290_3128)"/>
</g>
<defs>
<linearGradient id="paint0_linear_290_3128" x1="11.9167" y1="3" x2="11.9167" y2="23" gradientUnits="userSpaceOnUse">
<stop stop-color="#727DCD"/>
<stop offset="1" stop-color="#58E1FF"/>
</linearGradient>
</defs>
</svg>
