<svg width="17" height="19" viewBox="0 0 17 19" fill="none" xmlns="http://www.w3.org/2000/svg">
<g id="ion:people-sharp">
<path id="Vector" d="M5.04688 9.5C6.36718 9.5 7.4375 8.30376 7.4375 6.82812C7.4375 5.35249 6.36718 4.15625 5.04688 4.15625C3.72657 4.15625 2.65625 5.35249 2.65625 6.82812C2.65625 8.30376 3.72657 9.5 5.04688 9.5Z" fill="white"/>
<path id="Vector_2" d="M7.76953 10.9844C6.83453 10.4537 5.80258 10.2422 5.04688 10.2422C3.56668 10.2422 0.53125 11.2568 0.53125 13.2852V14.8438H5.51172V14.2474C5.51172 13.5423 5.77734 12.8354 6.24219 12.2461C6.61307 11.7755 7.13236 11.3388 7.76953 10.9844Z" fill="white"/>
<path id="Vector_3" d="M11.2891 10.6875C9.56018 10.6875 6.10938 11.8809 6.10938 14.25V16.0312H16.4688V14.25C16.4688 11.8809 13.0179 10.6875 11.2891 10.6875Z" fill="white"/>
<path id="Vector_4" d="M11.2891 9.5C12.9028 9.5 14.2109 8.03793 14.2109 6.23438C14.2109 4.43082 12.9028 2.96875 11.2891 2.96875C9.67536 2.96875 8.36719 4.43082 8.36719 6.23438C8.36719 8.03793 9.67536 9.5 11.2891 9.5Z" fill="white"/>
</g>
</svg>
