<svg width="22" height="20" viewBox="0 0 22 20" fill="none" xmlns="http://www.w3.org/2000/svg">
<path d="M10.6878 7.90102C8.35867 7.90102 6.47055 6.13231 6.47055 3.95051C6.47055 1.7687 8.35867 0 10.6878 0C13.0169 0 14.905 1.7687 14.905 3.95051C14.905 6.13231 13.0169 7.90102 10.6878 7.90102Z" fill="url(#paint0_linear_933_482)"/>
<path d="M0.237295 17.2609C0.674751 15.3951 1.67784 13.6873 3.12611 12.3425C3.47762 12.0121 3.85855 11.7103 4.26476 11.4405C6.1147 10.1406 8.36955 9.44654 10.682 9.46521C13.5096 9.45165 16.2282 10.4859 18.2449 12.3425C19.6932 13.6873 20.6963 15.3951 21.1337 17.2609C21.2098 17.5908 21.2057 17.9325 21.1217 18.2607C21.0378 18.589 20.8761 18.8953 20.6487 19.1571C20.4133 19.4246 20.1167 19.6391 19.781 19.785C19.4453 19.9308 19.0789 20.0043 18.7088 19.9999H2.65518C2.28404 20.0001 1.9176 19.9221 1.58301 19.7717C1.24841 19.6212 0.954243 19.4022 0.722279 19.1308C0.498983 18.872 0.339678 18.5701 0.255819 18.2468C0.171961 17.9235 0.165634 17.5868 0.237295 17.2609Z" fill="url(#paint1_linear_933_482)"/>
<defs>
<linearGradient id="paint0_linear_933_482" x1="7.42241" y1="-0.592576" x2="14.1341" y2="6.43183" gradientUnits="userSpaceOnUse">
<stop stop-color="#727DCD"/>
<stop offset="1" stop-color="#58E1FF"/>
</linearGradient>
<linearGradient id="paint1_linear_933_482" x1="2.5578" y1="8.6747" x2="9.82377" y2="22.8741" gradientUnits="userSpaceOnUse">
<stop stop-color="#727DCD"/>
<stop offset="1" stop-color="#58E1FF"/>
</linearGradient>
</defs>
</svg>
