<svg width="22" height="20" viewBox="0 0 22 20" fill="none" xmlns="http://www.w3.org/2000/svg">
<g id="Group 3">
<path id="Vector" d="M10.6877 7.90102C8.35861 7.90102 6.47048 6.13231 6.47048 3.95051C6.47048 1.7687 8.35861 0 10.6877 0C13.0168 0 14.905 1.7687 14.905 3.95051C14.905 6.13231 13.0168 7.90102 10.6877 7.90102Z" fill="white"/>
<path id="Vector_2" d="M0.237234 17.2609C0.67469 15.3951 1.67778 13.6873 3.12605 12.3425C3.47755 12.0121 3.85848 11.7103 4.2647 11.4405C6.11464 10.1406 8.36949 9.44654 10.6819 9.46521C13.5095 9.45165 16.2281 10.4859 18.2449 12.3425C19.6931 13.6873 20.6962 15.3951 21.1337 17.2609C21.2097 17.5908 21.2056 17.9325 21.1216 18.2607C21.0377 18.589 20.8761 18.8953 20.6487 19.1571C20.4132 19.4246 20.1167 19.6391 19.7809 19.785C19.4452 19.9308 19.0788 20.0043 18.7088 19.9999H2.65512C2.28398 20.0001 1.91754 19.9221 1.58295 19.7717C1.24835 19.6212 0.954182 19.4022 0.722218 19.1308C0.498922 18.872 0.339617 18.5701 0.255758 18.2468C0.1719 17.9235 0.165573 17.5868 0.237234 17.2609Z" fill="white"/>
</g>
</svg>
