<svg width="24" height="24" viewBox="0 0 24 24" fill="none" xmlns="http://www.w3.org/2000/svg">
<g id="material-symbols:report-outline">
<path id="Vector" d="M12 17C12.2833 17 12.521 16.904 12.713 16.712C12.905 16.52 13.0007 16.2827 13 16C13 15.7167 12.904 15.479 12.712 15.287C12.52 15.095 12.2827 14.9993 12 15C11.7167 15 11.479 15.096 11.287 15.288C11.095 15.48 10.9993 15.7173 11 16C11 16.2833 11.096 16.521 11.288 16.713C11.48 16.905 11.7173 17.0007 12 17ZM11 13H13V7H11V13ZM8.25 21L3 15.75V8.25L8.25 3H15.75L21 8.25V15.75L15.75 21H8.25ZM9.1 19H14.9L19 14.9V9.1L14.9 5H9.1L5 9.1V14.9L9.1 19Z" fill="url(#paint0_linear_290_3122)"/>
</g>
<defs>
<linearGradient id="paint0_linear_290_3122" x1="12" y1="3" x2="12" y2="21" gradientUnits="userSpaceOnUse">
<stop stop-color="#727DCD"/>
<stop offset="1" stop-color="#58E1FF"/>
</linearGradient>
</defs>
</svg>
