<svg width="17" height="17" viewBox="0 0 17 17" fill="none" xmlns="http://www.w3.org/2000/svg">
<path id="Vector" d="M0.89859 5.48339C0.246912 5.69851 0.155561 6.5808 0.747273 6.93885L5.07371 9.55193C5.18238 9.61766 5.30762 9.65022 5.43388 9.64555C5.56014 9.64087 5.68185 9.59918 5.78389 9.52565L10.9805 5.77471C11.1305 5.66578 11.3171 5.85882 11.2037 6.00552L7.28032 11.0723C7.2034 11.1718 7.15764 11.292 7.14873 11.4181C7.13982 11.5441 7.16815 11.6704 7.2302 11.7812L9.6978 16.1953C10.0353 16.7982 10.9202 16.7366 11.1575 16.0929L16.4548 1.72374C16.6888 1.08963 16.0792 0.459232 15.4372 0.671365L0.89859 5.48339Z" fill="white"/>
</svg>
