<svg xmlns="http://www.w3.org/2000/svg" width="16" height="22" viewBox="0 0 16 22" fill="none">
<path d="M2.992 5V4.25H2.45L2.283 4.77L2.992 5ZM13.008 5L13.722 4.77L13.55 4.25H13.003L13.008 5ZM14.722 10.328L14.008 10.558L14.015 10.582L14.024 10.605L14.722 10.328ZM1.278 10.328L1.978 10.604L1.987 10.581L1.995 10.557L1.278 10.328ZM14.25 14.097L14.829 14.574L14.846 14.554L14.861 14.533L14.25 14.097ZM8.95 20.526L8.373 20.05L8.356 20.07L8.341 20.091L8.95 20.526ZM1.75 14.097L1.139 14.532L1.154 14.553L1.171 14.573L1.75 14.097ZM7.05 20.526L7.661 20.091L7.646 20.07L7.629 20.05L7.05 20.526ZM9.25 11C9.25 11.1642 9.21767 11.3267 9.15485 11.4784C9.09203 11.63 8.99996 11.7678 8.88388 11.8839C8.76781 12 8.63001 12.092 8.47835 12.1548C8.3267 12.2177 8.16415 12.25 8 12.25V13.75C8.72935 13.75 9.42882 13.4603 9.94454 12.9445C10.4603 12.4288 10.75 11.7293 10.75 11H9.25ZM8 12.25C7.83585 12.25 7.6733 12.2177 7.52165 12.1548C7.36999 12.092 7.23219 12 7.11612 11.8839C7.00004 11.7678 6.90797 11.63 6.84515 11.4784C6.78233 11.3267 6.75 11.1642 6.75 11H5.25C5.25 11.7293 5.53973 12.4288 6.05546 12.9445C6.57118 13.4603 7.27065 13.75 8 13.75V12.25ZM6.75 11C6.75 10.6685 6.8817 10.3505 7.11612 10.1161C7.35054 9.8817 7.66848 9.75 8 9.75V8.25C7.27065 8.25 6.57118 8.53973 6.05546 9.05546C5.53973 9.57118 5.25 10.2707 5.25 11H6.75ZM8 9.75C8.33152 9.75 8.64946 9.8817 8.88388 10.1161C9.1183 10.3505 9.25 10.6685 9.25 11H10.75C10.75 10.2707 10.4603 9.57118 9.94454 9.05546C9.42882 8.53973 8.72935 8.25 8 8.25V9.75ZM3 5.75H13V4.25H3V5.75ZM13 0.25H3V1.75H13V0.25ZM15.75 3C15.75 2.27065 15.4603 1.57118 14.9445 1.05546C14.4288 0.539731 13.7293 0.25 13 0.25V1.75C13.3315 1.75 13.6495 1.8817 13.8839 2.11612C14.1183 2.35054 14.25 2.66848 14.25 3H15.75ZM13 5.75C13.7293 5.75 14.4288 5.46027 14.9445 4.94454C15.4603 4.42882 15.75 3.72935 15.75 3H14.25C14.25 3.33152 14.1183 3.64946 13.8839 3.88388C13.6495 4.1183 13.3315 4.25 13 4.25V5.75ZM0.25 3C0.25 3.72935 0.539731 4.42882 1.05546 4.94454C1.57118 5.46027 2.27065 5.75 3 5.75V4.25C2.66848 4.25 2.35054 4.1183 2.11612 3.88388C1.8817 3.64946 1.75 3.33152 1.75 3H0.25ZM1.75 3C1.75 2.66848 1.8817 2.35054 2.11612 2.11612C2.35054 1.8817 2.66848 1.75 3 1.75V0.25C2.27065 0.25 1.57118 0.539731 1.05546 1.05546C0.539731 1.57118 0.25 2.27065 0.25 3H1.75ZM2.992 5.75H13.008V4.25H2.992V5.75ZM12.292 5.23L14.006 10.558L15.434 10.099L13.722 4.77L12.292 5.23ZM1.992 10.558L3.706 5.23L2.278 4.77L0.564 10.098L1.992 10.558ZM13.669 13.62L8.373 20.05L9.531 21.004L14.831 14.575L13.669 13.62ZM1.169 14.574L6.469 21.003L7.627 20.05L2.327 13.621L1.169 14.574ZM8.337 20.091C8.29523 20.1408 8.24306 20.1809 8.18414 20.2084C8.12523 20.2358 8.06101 20.2501 7.996 20.2501C7.93099 20.2501 7.86677 20.2358 7.80786 20.2084C7.74894 20.1809 7.69677 20.1408 7.655 20.091L6.434 20.962C6.61453 21.2066 6.84996 21.4054 7.12135 21.5424C7.39274 21.6794 7.6925 21.7508 7.9965 21.7508C8.3005 21.7508 8.60026 21.6794 8.87165 21.5424C9.14304 21.4054 9.37847 21.2066 9.559 20.962L8.337 20.091ZM0.581 10.05C0.290931 10.7838 0.190278 11.5788 0.28832 12.3618C0.386363 13.1447 0.679946 13.8904 1.142 14.53L2.363 13.659C2.04625 13.2233 1.84462 12.7147 1.77679 12.1803C1.70897 11.6459 1.77714 11.103 1.975 10.602L0.581 10.05ZM14.025 10.602C14.2234 11.1029 14.2919 11.6459 14.224 12.1804C14.1562 12.7149 13.9543 13.2235 13.637 13.659L14.858 14.53C15.3201 13.8904 15.6136 13.1447 15.7117 12.3618C15.8097 11.5788 15.7091 10.7838 15.419 10.05L14.025 10.602ZM7.25 13V21H8.75V13H7.25Z" fill="#03a9f4"/>
</svg>