<svg width="16" height="15" viewBox="0 0 16 15" fill="none" xmlns="http://www.w3.org/2000/svg">
<path d="M3.8 10.6787V8.54435M8 3.56409V1.42969M12.2 10.6787V8.54435M6.6 9.96728V12.8131C6.6 13.1905 6.4525 13.5525 6.18995 13.8193C5.9274 14.0862 5.5713 14.2361 5.2 14.2361H2.4C2.0287 14.2361 1.6726 14.0862 1.41005 13.8193C1.1475 13.5525 1 13.1905 1 12.8131V9.96728C1 9.58989 1.1475 9.22796 1.41005 8.96111C1.6726 8.69426 2.0287 8.54435 2.4 8.54435H5.2C5.5713 8.54435 5.9274 8.69426 6.18995 8.96111C6.4525 9.22796 6.6 9.58989 6.6 9.96728ZM10.8 2.85262V5.69848C10.8 6.07587 10.6525 6.4378 10.3899 6.70465C10.1274 6.9715 9.7713 7.12141 9.4 7.12141H6.6C6.2287 7.12141 5.8726 6.9715 5.61005 6.70465C5.3475 6.4378 5.2 6.07587 5.2 5.69848V2.85262C5.2 2.47523 5.3475 2.11331 5.61005 1.84645C5.8726 1.5796 6.2287 1.42969 6.6 1.42969H9.4C9.7713 1.42969 10.1274 1.5796 10.3899 1.84645C10.6525 2.11331 10.8 2.47523 10.8 2.85262ZM15 9.96728V12.8131C15 13.1905 14.8525 13.5525 14.5899 13.8193C14.3274 14.0862 13.9713 14.2361 13.6 14.2361H10.8C10.4287 14.2361 10.0726 14.0862 9.81005 13.8193C9.5475 13.5525 9.4 13.1905 9.4 12.8131V9.96728C9.4 9.58989 9.5475 9.22796 9.81005 8.96111C10.0726 8.69426 10.4287 8.54435 10.8 8.54435H13.6C13.9713 8.54435 14.3274 8.69426 14.5899 8.96111C14.8525 9.22796 15 9.58989 15 9.96728Z" stroke="#E6A201" stroke-width="1.5" stroke-linecap="round" stroke-linejoin="round"/>
</svg>
