<svg width="15" height="15" viewBox="0 0 15 15" fill="none" xmlns="http://www.w3.org/2000/svg">
<g id="mingcute:time-line" clip-path="url(#clip0_174_6190)">
<g id="Group">
<path id="Vector" d="M7.5 1.25C10.9519 1.25 13.75 4.04813 13.75 7.5C13.75 10.9519 10.9519 13.75 7.5 13.75C4.04813 13.75 1.25 10.9519 1.25 7.5C1.25 4.04813 4.04813 1.25 7.5 1.25ZM7.5 2.5C6.17392 2.5 4.90215 3.02678 3.96447 3.96447C3.02678 4.90215 2.5 6.17392 2.5 7.5C2.5 8.82608 3.02678 10.0979 3.96447 11.0355C4.90215 11.9732 6.17392 12.5 7.5 12.5C8.82608 12.5 10.0979 11.9732 11.0355 11.0355C11.9732 10.0979 12.5 8.82608 12.5 7.5C12.5 6.17392 11.9732 4.90215 11.0355 3.96447C10.0979 3.02678 8.82608 2.5 7.5 2.5ZM7.5 3.75C7.65308 3.75002 7.80084 3.80622 7.91523 3.90795C8.02963 4.00967 8.10271 4.14984 8.12063 4.30187L8.125 4.375V7.24125L9.81687 8.93313C9.92897 9.0456 9.99405 9.19652 9.99889 9.35524C10.0037 9.51396 9.94799 9.66857 9.84297 9.78767C9.73795 9.90678 9.59153 9.98144 9.43345 9.9965C9.27538 10.0116 9.1175 9.96588 8.99188 9.86875L8.93313 9.81687L7.05813 7.94187C6.96099 7.84465 6.8986 7.71813 6.88062 7.58187L6.875 7.5V4.375C6.875 4.20924 6.94085 4.05027 7.05806 3.93306C7.17527 3.81585 7.33424 3.75 7.5 3.75Z" fill="white"/>
</g>
</g>
<defs>
<clipPath id="clip0_174_6190">
<rect width="15" height="15" fill="white"/>
</clipPath>
</defs>
</svg>
