<svg width="22" height="24" viewBox="0 0 22 24" fill="none" xmlns="http://www.w3.org/2000/svg">
<path d="M15.4035 6.15325C14.8368 4.86437 14.092 3.80908 12.994 3.24681C13.224 2.9287 13.3536 2.5613 13.3691 2.1832C13.3846 1.80511 13.2854 1.43027 13.082 1.09809C12.8786 0.765906 12.5785 0.488636 12.2132 0.295412C11.8479 0.102188 11.4309 0.000143013 11.006 0C10.5811 0.000196334 10.164 0.102325 9.7987 0.295652C9.4334 0.488979 9.13332 0.766365 8.93001 1.09866C8.7267 1.43095 8.62767 1.80587 8.64332 2.18402C8.65898 2.56217 8.78874 2.92958 9.01897 3.24764C5.2969 5.15552 5.59294 12.641 3.26489 16.1656C1.25068 16.637 0 17.2943 0 18.0193V18.9578C0 19.183 0.10961 19.3958 0.301663 19.6035L15.4035 6.15325ZM11.007 0.832558C11.3861 0.833219 11.7496 0.967642 12.0177 1.20639C12.2858 1.44515 12.4368 1.76877 12.4375 2.10642C12.4375 2.41675 12.3064 2.69705 12.1002 2.91896C11.7443 2.83431 11.3773 2.79223 11.0088 2.79382C10.6135 2.79382 10.2519 2.83887 9.91553 2.91896C9.69969 2.69133 9.58034 2.4035 9.57827 2.10559C9.57827 1.40317 10.2172 0.834226 11.007 0.832558ZM18.7481 16.1656C17.6941 14.5689 17.1761 12.1597 16.5821 9.82385L2.16786 21.1616C3.47382 21.4436 6.78273 21.5939 8.50184 21.6966C8.49996 21.7366 8.48872 21.7766 8.48872 21.8175C8.50649 22.4017 8.77954 22.9566 9.24976 23.3642C9.71999 23.7718 10.3503 23.9999 11.0065 24C11.6627 24.0001 12.2931 23.7722 12.7635 23.3647C13.2339 22.9573 13.5072 22.4025 13.5252 21.8184C13.5252 21.7766 13.5139 21.7374 13.5102 21.6974C18.3705 21.4054 21.9998 20.2892 21.9998 18.9586V18.0193C22.0158 17.2935 20.7642 16.637 18.7481 16.1656ZM15.4035 6.15325L0.301663 19.6035L2.16786 21.1616L16.5821 9.82385L15.4035 6.15325Z" fill="white"/>
</svg>
