<svg width="23" height="23" viewBox="0 0 23 23" fill="none" xmlns="http://www.w3.org/2000/svg">
<path id="Vector" d="M11.5 0C9.22552 0 7.00211 0.674463 5.11095 1.9381C3.21978 3.20173 1.7458 4.99779 0.87539 7.09914C0.00498277 9.20049 -0.222756 11.5128 0.220974 13.7435C0.664704 15.9743 1.75997 18.0234 3.36828 19.6317C4.97658 21.24 7.02568 22.3353 9.25646 22.779C11.4872 23.2228 13.7995 22.995 15.9009 22.1246C18.0022 21.2542 19.7983 19.7802 21.0619 17.8891C22.3255 15.9979 23 13.7745 23 11.5C23 8.45001 21.7884 5.52494 19.6317 3.36827C17.4751 1.2116 14.55 0 11.5 0ZM19.0109 7.64031L9.56657 17.0775L3.98907 11.5C3.79844 11.3094 3.69135 11.0508 3.69135 10.7812C3.69135 10.5117 3.79844 10.2531 3.98907 10.0625C4.17969 9.87187 4.43823 9.76478 4.70782 9.76478C4.9774 9.76478 5.23594 9.87187 5.42657 10.0625L9.58094 14.2169L17.5878 6.21719C17.6822 6.1228 17.7943 6.04793 17.9176 5.99684C18.0409 5.94576 18.1731 5.91947 18.3066 5.91947C18.44 5.91947 18.5722 5.94576 18.6955 5.99684C18.8189 6.04793 18.9309 6.1228 19.0253 6.21719C19.1197 6.31157 19.1946 6.42363 19.2457 6.54695C19.2967 6.67027 19.323 6.80245 19.323 6.93594C19.323 7.06942 19.2967 7.2016 19.2457 7.32492C19.1946 7.44824 19.1197 7.5603 19.0253 7.65469L19.0109 7.64031Z" fill="#58FF69"/>
</svg>
